<?xml version="1.0" encoding="UTF-8" standalone="no"?>
<svg height="160" viewBox="0 0 128 160" width="128" xmlns="http://www.w3.org/2000/svg">
<defs>
<path d="M287 13Q223 13 164 -12Q104 -37 63 -87L123 -145Q158 -108 199 -88Q240 -69 287 -69Q357 -69 400 -110Q443 -150 443 -217Q443 -281 400 -324Q356 -366 277 -366Q233 -366 196 -352Q158 -337 126 -308L107 -317L153 -720H496V-640H169L224 -680L198 -426L201 -424Q223 -436 248 -442Q272 -448 302 -448Q357 -448 400 -430Q444 -412 474 -380Q503 -348 518 -307Q533 -266 533 -220Q533 -152 502 -100Q472 -47 416 -17Q361 13 287 13Z" id="path1"/>
</defs>
<g>
<g data-glyph="five.lf.rcltGeo.ss20" fill="#20242e" transform="translate(36.16000 104.99201) rotate(0) scale(0.096)">
<use href="#path1"/>
</g>
</g>
</svg>
