<?xml version="1.0" encoding="UTF-8" standalone="no"?>
<svg height="160" viewBox="0 0 128 160" width="128" xmlns="http://www.w3.org/2000/svg">
<defs>
<path d="M264 -432V-1280H65V-1440H338H426V-432ZM391 0 1189 -1440H1345L547 0ZM1136 0V-19L1542 -490Q1592 -546 1620 -600Q1648 -653 1648 -702Q1648 -776 1605 -822Q1562 -868 1488 -868Q1415 -868 1368 -819Q1322 -770 1322 -678H1152Q1152 -781 1196 -860Q1239 -938 1315 -982Q1391 -1026 1490 -1026Q1590 -1026 1664 -982Q1738 -939 1779 -868Q1820 -797 1820 -714Q1820 -650 1797 -590Q1774 -531 1718 -460L1575 -274Q1550 -243 1518 -210Q1486 -177 1466 -162V-158L1828 -162V0Z" id="path1"/>
</defs>
<g>
<g data-glyph="onehalf.ss10.ss20" fill="#dee4e3" transform="translate(16.81600 104.99201) rotate(0) scale(0.048)">
<use href="#path1"/>
</g>
</g>
</svg>
